Source: ONLiNE 720p
 
http://www.imdb.com/title/tt1945087/

A scheduling mistake leads to an estranged father and son sharing a vacation home with their respective girlfriends.

General
Complete name                            : In Our Nature 2012 HDRip x264 AAC-OFFLiNE.mp4
Format                                   : MPEG-4
Format profile                           : Base Media
Codec ID                                 : isom
File size                                : 1.43 GiB
Duration                                 : 1h 42mn
Overall bit rate mode                    : Variable
Overall bit rate                         : 1 991 Kbps
Encoded date                             : UTC 2013-02-05 19:23:56
Tagged date                              : UTC 2013-02-05 19:23:56

Video
ID                                       : 1
Format                                   : AVC
Format/Info                              : Advanced Video Codec
Format profile                           : High@L4.1
Format settings, CABAC                   : Yes
Format settings, ReFrames                : 3 frames
Codec ID                                 : avc1
Codec ID/Info                            : Advanced Video Coding
Duration                                 : 1h 42mn
Bit rate mode                            : Variable
Bit rate                                 : 1 677 Kbps
Maximum bit rate                         : 40.0 Mbps
Width                                    : 720 pixels
Height                                   : 304 pixels
Display aspect ratio                     : 2.35:1
Frame rate mode                          : Constant
Frame rate                               : 23.976 fps
Color space                              : YUV
Chroma subsampling                       : 4:2:0
Bit depth                                : 8 bits
Scan type                                : Progressive
Bits/(Pixel*Frame)                       : 0.320
Stream size                              : 1.20 GiB (84%)
Writing library                          : x264 core 129 r2245 bc13772

Audio
ID                                       : 2
Format                                   : AAC
Format/Info                              : Advanced Audio Codec
Format profile                           : LC
Codec ID                                 : 40
Duration                                 : 1h 42mn
Bit rate mode                            : Variable
Bit rate                                 : 310 Kbps
Maximum bit rate                         : 378 Kbps
Channel(s)                               : 6 channels
Channel positions                        : Front: L C R, Side: L R, LFE
Sampling rate                            : 48.0 KHz
Compression mode                         : Lossy
Stream size                              : 227 MiB (16%)
Language                                 : English
Encoded date                             : UTC 2013-02-05 17:15:02
Tagged date                              : UTC 2013-02-05 19:27:48

 
http://www.shotpix.com/images/96946588401967007779.png 
http://www.shotpix.com/images/70534629982454374203.png 
http://www.shotpix.com/images/05728440495935081073.png 
http://www.shotpix.com/images/88304395178231848344.png